<svg viewBox="0 0 1024 1024" xmlns="http://www.w3.org/2000/svg">
  <defs>
    <linearGradient id="bgC" x1="0" y1="0" x2="0" y2="1">
      <stop offset="0" stop-color="#fffdf8"/>
      <stop offset="1" stop-color="#f1ece3"/>
    </linearGradient>
    <filter id="docC" x="-40%" y="-40%" width="180%" height="180%">
      <feDropShadow dx="0" dy="18" stdDeviation="22" flood-color="#5a463c" flood-opacity="0.24"/>
    </filter>
  </defs>

  <rect x="100" y="100" width="824" height="824" rx="185" fill="url(#bgC)" stroke="#e4ddd1" stroke-width="3"/>

  <!-- back page -->
  <g filter="url(#docC)">
    <rect x="288" y="232" width="380" height="500" rx="34" fill="#ffffff" stroke="#d6cdbd" stroke-width="3" transform="rotate(-7 478 482)"/>
  </g>
  <!-- front page -->
  <g filter="url(#docC)">
    <rect x="356" y="292" width="380" height="500" rx="34" fill="#ffffff" stroke="#d6cdbd" stroke-width="3"/>
  </g>

  <!-- front page content -->
  <rect x="398" y="350" width="250" height="20" rx="10" fill="#cfc6b8"/>
  <!-- changed (amber highlight) line -->
  <rect x="376" y="404" width="340" height="48" rx="10" fill="#faf3e6"/>
  <rect x="398" y="418" width="296" height="20" rx="10" fill="#8a5a1a"/>
  <!-- removed (struck) line -->
  <rect x="398" y="490" width="210" height="20" rx="10" fill="#d8b3aa"/>
  <rect x="388" y="498" width="232" height="6" rx="3" fill="#9a3f2f"/>
  <!-- normal lines -->
  <rect x="398" y="556" width="280" height="20" rx="10" fill="#cfc6b8"/>
  <rect x="398" y="616" width="190" height="20" rx="10" fill="#cfc6b8"/>
  <!-- added line (green) -->
  <rect x="376" y="666" width="340" height="48" rx="10" fill="#eaf3ec"/>
  <rect x="398" y="680" width="250" height="20" rx="10" fill="#2f6b46"/>

  <!-- diff badge -->
  <circle cx="700" cy="744" r="78" fill="#b05a4a" stroke="#ffffff" stroke-width="10"/>
  <rect x="664" y="724" width="72" height="13" rx="6.5" fill="#ffffff"/>
  <rect x="664" y="752" width="72" height="13" rx="6.5" fill="#ffffff"/>
  <rect x="690" y="706" width="13" height="76" rx="6.5" fill="#ffffff" transform="rotate(32 696 744)"/>
</svg>
